<?xml version="1.0" standalone="no"?>
<!DOCTYPE svg PUBLIC "-//W3C//DTD SVG 20010904//EN"
 "http://www.w3.org/TR/2001/REC-SVG-20010904/DTD/svg10.dtd">
<svg version="1.0" xmlns="http://www.w3.org/2000/svg"
 width="480.000000pt" height="480.000000pt" viewBox="0 0 480.000000 480.000000"
 preserveAspectRatio="xMidYMid meet">
<metadata>
Created by potrace 1.11, written by Peter Selinger 2001-2013
</metadata>
<g transform="translate(0.000000,480.000000) scale(0.100000,-0.100000)"
fill="#000000" stroke="none">
<path d="M1844 4237 c-122 -47 -199 -130 -233 -252 -9 -31 -21 -47 -58 -70
-36 -23 -56 -46 -83 -97 l-35 -68 -51 0 -51 0 -5 51 c-7 65 -33 101 -85 113
-34 8 -43 16 -68 63 -32 62 -95 122 -162 153 -228 107 -484 -39 -519 -297 -17
-128 74 -294 192 -350 l33 -16 -31 -61 c-50 -100 -107 -193 -206 -337 -106
-155 -202 -262 -257 -285 -36 -15 -37 -17 -31 -52 14 -88 91 -133 238 -140
l97 -5 11 -31 c6 -17 43 -62 83 -101 102 -98 144 -180 192 -375 9 -36 18 -72
21 -82 4 -13 -10 -10 -72 17 -42 18 -99 37 -125 40 -32 5 -54 14 -63 27 -14
19 -18 19 -128 8 -147 -15 -187 -26 -221 -58 -78 -74 -61 -218 40 -338 31 -36
43 -60 43 -82 0 -42 27 -84 105 -163 l66 -66 -93 -5 c-72 -5 -112 -13 -178
-38 -93 -36 -184 -91 -194 -117 -13 -34 30 -54 84 -39 23 6 26 4 25 -21 0 -24
5 -29 37 -37 28 -7 47 -5 80 7 24 10 58 17 75 17 25 0 33 -6 44 -31 24 -59 57
-88 127 -109 38 -12 78 -18 93 -15 27 6 28 5 44 -69 18 -81 16 -162 -5 -212
-26 -61 16 -120 65 -94 33 17 53 73 58 158 6 93 25 117 91 116 48 -1 75 -17
171 -99 89 -77 227 -165 268 -172 67 -11 89 39 41 96 -32 38 -145 109 -250
156 -56 25 -85 44 -93 61 -6 14 -11 27 -11 29 0 12 42 1 149 -39 138 -52 244
-79 271 -71 23 7 26 41 7 65 -7 9 -37 26 -67 39 -30 13 -56 24 -57 25 -1 0
141 2 314 4 l315 3 -21 -26 c-45 -58 26 -94 146 -75 140 23 194 -10 114 -68
-45 -33 -88 -50 -218 -86 -170 -47 -323 -140 -323 -195 0 -19 8 -32 25 -41 24
-13 35 -9 158 52 185 93 463 218 483 218 26 0 9 -31 -43 -75 -100 -86 -193
-184 -193 -204 0 -21 27 -41 54 -41 8 0 73 58 143 129 l128 128 100 -1 c87 -1
105 2 136 21 19 13 41 34 47 48 11 24 16 25 93 25 149 0 312 63 406 156 49 49
55 51 115 56 36 3 109 22 168 42 146 52 150 53 150 27 0 -18 -74 -161 -117
-228 -39 -59 -35 -145 7 -158 28 -9 45 7 74 70 31 69 94 161 140 204 33 32 41
35 113 38 76 4 80 3 163 -39 47 -24 164 -93 260 -152 242 -151 305 -177 338
-144 28 28 11 46 -105 116 -169 101 -261 170 -310 230 -47 57 -55 95 -24 112
52 27 363 -1 479 -44 39 -15 46 -15 72 -1 22 12 30 23 30 43 -1 65 -38 79
-315 117 -99 14 -194 28 -211 30 -17 3 -48 20 -69 38 l-38 33 60 32 c136 72
320 225 403 334 24 32 54 55 94 75 112 53 196 175 196 281 0 61 -44 145 -105
200 -55 49 -197 121 -294 148 -34 10 -61 21 -61 24 0 4 -12 15 -26 25 -35 23
-79 12 -93 -23 -10 -24 -28 -32 -157 -71 -167 -51 -244 -87 -329 -154 -69 -55
-59 -59 -130 59 -31 52 -55 76 -110 114 -86 59 -137 112 -204 212 -28 43 -59
82 -69 87 -10 5 -61 9 -113 9 -90 -1 -97 0 -188 42 -83 37 -98 41 -127 32 -29
-9 -34 -7 -53 19 -12 16 -28 29 -36 29 -8 0 -19 17 -25 43 -37 143 -55 191
-105 279 -48 87 -55 105 -55 156 -1 79 -22 172 -51 218 -13 22 -55 75 -94 119
l-71 80 20 45 c16 35 21 65 21 140 0 89 -2 99 -34 158 -69 127 -177 194 -321
199 -70 3 -96 -1 -146 -20z m409 -154 c74 -56 72 -160 -3 -211 -29 -20 -44
-23 -87 -20 -49 4 -56 2 -99 -34 -40 -33 -53 -38 -95 -38 -41 0 -55 5 -86 34
-35 31 -42 33 -93 29 -46 -4 -61 -1 -90 19 -19 13 -40 39 -48 61 -32 82 34
177 123 177 44 0 114 -42 115 -68 0 -10 5 -10 22 -1 14 7 45 9 85 6 46 -5 63
-3 63 6 1 26 72 67 115 67 30 0 52 -8 78 -27z m-1290 -60 c45 -36 65 -95 48
-146 -7 -20 -19 -41 -27 -47 -7 -7 -14 -22 -14 -35 0 -38 -42 -89 -88 -105
-37 -13 -47 -13 -84 0 -47 16 -88 67 -88 107 0 13 -10 37 -21 53 -18 23 -21
38 -17 81 5 45 11 58 42 86 35 32 38 33 124 33 81 0 92 -2 125 -27z m677
-1373 c116 -15 573 -99 582 -108 22 -24 8 -88 -33 -148 -35 -51 -39 -109 -10
-141 20 -21 73 -36 164 -48 l48 -6 -37 -47 c-20 -26 -64 -75 -98 -109 -49 -52
-66 -63 -92 -63 -26 0 -43 -11 -84 -54 -28 -29 -57 -62 -65 -72 -12 -16 -17
-17 -34 -6 -45 27 -141 -1 -141 -42 0 -19 -142 -36 -307 -36 -281 0 -497 68
-605 190 -50 57 -79 112 -122 239 -45 133 -75 182 -162 266 -40 39 -77 82 -83
96 l-9 26 86 7 c48 3 141 13 207 21 328 41 633 54 795 35z m933 -705 c18 -61
15 -210 -6 -275 -24 -74 -59 -150 -68 -150 -5 0 -15 -13 -24 -29 -16 -31 -7
-81 15 -81 5 0 10 -21 10 -46 0 -69 19 -131 52 -166 27 -30 28 -33 12 -45 -9
-7 -20 -14 -23 -15 -4 -2 -24 -25 -45 -51 -75 -92 -147 -114 -276 -83 -43 10
-151 12 -490 8 -381 -4 -446 -3 -520 12 -155 31 -249 80 -365 191 -18 17 -23
37 -28 110 -11 168 12 323 62 405 38 64 41 64 85 22 51 -49 122 -87 195 -107
75 -21 405 -39 535 -30 l104 7 17 44 c18 47 39 64 77 64 40 0 68 -27 68 -65 0
-33 -1 -34 -30 -29 -36 8 -58 -8 -77 -54 -23 -55 -3 -97 54 -116 68 -23 98
-21 122 10 24 31 26 45 10 89 -7 18 -9 43 -6 56 8 31 54 59 89 52 23 -4 32 3
79 66 30 39 59 71 66 71 7 0 37 -12 68 -27 44 -22 60 -25 82 -17 56 19 35 99
-38 143 l-28 17 71 83 71 83 34 -54 c18 -29 39 -71 46 -93z m-356 -7 c42 -47
44 -61 18 -114 -27 -54 -100 -142 -109 -133 -3 3 7 23 24 44 35 43 53 103 44
140 -7 29 -18 31 -65 11 -83 -34 -87 -31 -34 23 56 58 89 65 122 29z m-248
-108 c48 -25 67 -250 22 -250 -16 0 -18 9 -17 68 0 37 -3 79 -7 94 -8 31 -59
62 -88 55 -26 -7 -24 8 3 27 26 18 61 21 87 6z"/>
<path d="M2122 4070 c-15 -10 -36 -29 -45 -44 -17 -25 -21 -27 -75 -21 -32 4
-69 2 -84 -4 -24 -9 -29 -7 -48 20 -65 91 -200 57 -200 -51 0 -74 69 -123 142
-101 40 12 41 12 80 -25 54 -54 99 -54 158 0 40 36 45 38 91 32 81 -11 139 33
139 104 0 81 -89 132 -158 90z"/>
<path d="M732 3995 c-41 -35 -49 -74 -23 -127 11 -24 22 -56 26 -72 10 -46 57
-86 102 -86 21 0 49 7 61 16 25 17 52 64 52 89 0 9 9 28 20 42 31 39 27 98 -9
134 -28 27 -34 29 -114 29 -77 0 -89 -3 -115 -25z"/>
<path d="M1305 2500 c-71 -4 -136 -8 -142 -9 -7 0 -13 -6 -13 -12 0 -7 60 -9
203 -4 172 6 210 5 256 -9 66 -19 61 -19 61 -3 0 35 -151 50 -365 37z"/>
</g>
</svg>
